<svg width="204" height="105" viewBox="0 0 204 105" fill="none" xmlns="http://www.w3.org/2000/svg">
<rect x="1" y="1" width="92" height="103" rx="15" fill="#030303" stroke="white" stroke-width="2"/>
<path d="M74.1658 32.64L73.9738 37.728L73.8778 38.88L72.9178 46.944C72.7258 48.48 72.5018 49.952 72.2458 51.36C71.9898 52.768 71.7018 54.112 71.3818 55.392L70.7098 57.696L70.0378 59.616C67.8618 66.016 65.3338 70.72 62.4538 73.728L60.3418 75.936L57.5578 78.24C53.9098 81.376 48.7578 83.424 42.1018 84.384C37.8778 84.384 35.1898 84.224 34.0378 83.904C31.0298 83.328 28.6618 81.984 26.9338 79.872C26.4858 79.36 25.9098 78.208 25.2057 76.416L24.6298 74.016L24.4378 71.232C24.3738 70.656 24.4698 69.312 24.7258 67.2L25.7818 58.464L26.9338 48.48L28.3738 37.536L28.5658 34.944C28.6298 33.6 28.3418 32.48 27.7018 31.584L28.4698 30.624L30.6778 29.952L32.8858 29.376L37.5898 28.608L38.7418 28.512C41.3018 28.32 42.5818 29.792 42.5818 32.928V33.504L42.3898 35.04L41.3338 41.856L39.9898 48L38.8378 54.336L37.2058 63.936L36.4377 69.408L36.2458 73.152C35.9258 77.824 37.9097 80.704 42.1978 81.792L43.7338 81.984C46.6138 81.984 49.3978 80.128 52.0858 76.416C53.6858 74.24 55.0938 71.424 56.3098 67.968C57.6538 64 58.5498 60.288 58.9978 56.832L59.3818 53.184L60.2458 45.408L60.5338 40.8L60.7258 35.904C60.7898 33.472 60.6618 31.136 60.3418 28.896C60.3418 27.744 59.9258 26.432 59.0938 24.96L67.6378 22.272C68.5338 22.016 69.3978 21.888 70.2298 21.888C71.1898 21.888 71.9258 22.208 72.4378 22.848C73.7178 24.384 74.2938 27.648 74.1658 32.64Z" fill="white"/>
<path d="M138.12 23.464L138.056 25.384L137.736 27.88C137.565 29.032 137.245 30.5893 136.776 32.552L136.072 35.368L131.464 51.88C131.08 53.2027 130.888 54.2053 130.888 54.888C130.888 55.4 130.973 55.7413 131.144 55.912C131.187 55.9973 131.464 56.1467 131.976 56.36L131.656 57L129.16 57.064L125.32 57.32C122.845 57.448 121.608 56.8507 121.608 55.528L121.672 54.568L121.8 53.992L122.056 53.224L122.568 51.048L125.704 41.192L127.304 35.496L128.2 31.976L128.648 29.672C128.819 28.8613 129.075 27.1333 129.416 24.488L129.48 23.144C129.565 21.7787 129.288 20.6907 128.648 19.88C128.008 19.0693 127.027 18.664 125.704 18.664H125.256L124.488 18.792C124.147 18.792 123.763 18.856 123.336 18.984L122.824 19.176L122.248 19.496C121.565 19.8373 121.053 20.456 120.712 21.352L120.456 22.76L120.392 23.272L120.328 23.912L120.136 24.488C119.88 26.1093 118.941 27.5387 117.32 28.776C116.68 29.2027 115.848 29.5867 114.824 29.928L112.136 30.696L111.816 30.376C111.987 30.0773 112.115 29.672 112.2 29.16L112.392 28.008V27.368L112.264 25.448L112.008 23.464L111.944 22.952C111.944 22.5253 112.157 22.0987 112.584 21.672L114.632 20.648L116.36 19.944L118.28 19.24L122.312 17.896C123.208 17.5973 124.381 17.3413 125.832 17.128L127.688 16.936L129.352 16.808C130.248 16.7653 131.379 16.8293 132.744 17C133.896 17.1707 134.707 17.448 135.176 17.832C136.072 18.4293 136.755 19.1333 137.224 19.944C137.523 20.6267 137.821 21.8 138.12 23.464ZM194.637 45.8C194.637 47.208 194.231 48.3387 193.421 49.192C193.037 49.6187 192.503 50.0453 191.821 50.472L190.925 50.92L190.029 51.304L188.621 51.688L187.277 52.072L185.421 52.456L184.653 52.712L183.245 53.032L182.541 53.224L181.965 53.48L179.789 54.312C178.551 54.7813 177.613 55.1013 176.973 55.272L176.013 55.464L175.181 55.592C174.157 55.592 173.069 55.1867 171.917 54.376L169.421 55.4L166.861 56.36L163.789 57L162.189 57.128L160.589 57.192C158.029 57.32 155.938 56.7013 154.317 55.336C153.805 54.8667 153.229 54.1413 152.589 53.16C151.991 52.1787 151.693 50.984 151.693 49.576V48.36C151.693 47.1227 151.906 45.9707 152.333 44.904L152.973 43.176L153.485 42.152L153.869 41.512C155.106 39.592 156.429 37.9493 157.837 36.584L162.445 32.04C163.938 30.5893 165.602 28.648 167.437 26.216C168.247 25.1493 169.143 23.7627 170.125 22.056L171.213 19.56C171.597 18.1093 171.789 17.1707 171.789 16.744C171.789 15.8053 171.533 15.1013 171.021 14.632L171.341 14.184L175.245 13.416L178.317 12.904L179.469 12.84C180.877 12.7547 181.773 13.6507 182.157 15.528C182.157 17.4907 181.325 19.7947 179.661 22.44C179.063 23.3787 177.954 24.744 176.333 26.536L174.733 28.392L172.941 30.248L167.117 36.008L164.109 39.4C163.127 40.5093 162.317 41.8107 161.677 43.304C161.079 44.7547 160.802 46.2267 160.845 47.72V48.552L160.973 49.256C161.399 52.6267 162.786 54.312 165.133 54.312C167.65 54.312 169.677 53.9493 171.213 53.224L170.189 51.688C169.89 51.2187 169.655 50.728 169.485 50.216C169.229 49.2773 169.101 48.552 169.101 48.04C169.101 45.9067 169.954 44.264 171.661 43.112C172.727 42.4293 173.858 41.9387 175.053 41.64L180.365 40.36L187.725 38.056L188.429 37.928H189.133C190.626 37.8427 191.906 38.44 192.973 39.72C193.399 40.2747 193.805 41.064 194.189 42.088L194.317 42.792L194.509 43.88C194.594 44.264 194.637 44.904 194.637 45.8ZM186.125 45.16C185.869 43.5813 185.335 42.472 184.525 41.832C184.141 41.5333 183.778 41.3413 183.437 41.256L182.477 41.192C182.05 41.192 181.751 41.2133 181.581 41.256L179.853 41.64C178.573 41.9387 177.741 42.5147 177.357 43.368L177.165 44.008L177.101 44.84C177.058 45.352 177.079 45.6933 177.165 45.864L177.357 47.016C177.399 47.272 177.485 47.5067 177.613 47.72L178.189 49.064C178.658 50.1733 179.063 50.8773 179.405 51.176C179.959 51.688 180.749 51.9227 181.773 51.88H182.477C182.733 51.88 183.01 51.8373 183.309 51.752L184.141 51.56L184.589 51.432L184.972 51.24C185.997 50.8133 186.509 49.9173 186.509 48.552V47.848L186.125 45.16Z" fill="white"/>
<path d="M106.008 87V79.2412H102.638V78.2295H110.731V79.2412H107.361V87H106.008ZM118.478 86.7061C117.544 87.016 116.687 87.1709 115.908 87.1709C114.632 87.1709 113.65 86.8428 112.962 86.1865C112.278 85.5303 111.936 84.5915 111.936 83.3701C111.936 82.2171 112.264 81.2692 112.921 80.5264C113.581 79.7835 114.42 79.4121 115.436 79.4121C116.462 79.4121 117.216 79.7197 117.699 80.335C118.186 80.9502 118.43 81.9072 118.43 83.2061V83.6367H113.372C113.472 85.3184 114.379 86.1592 116.092 86.1592C116.817 86.1592 117.612 85.986 118.478 85.6396V86.7061ZM113.413 82.625H116.995V82.4336C116.995 81.0938 116.436 80.4238 115.32 80.4238C114.782 80.4238 114.345 80.6175 114.007 81.0049C113.675 81.3923 113.476 81.9323 113.413 82.625ZM127.018 86.7607C126.22 87.0342 125.425 87.1709 124.632 87.1709C123.338 87.1709 122.34 86.8337 121.638 86.1592C120.941 85.4847 120.592 84.5277 120.592 83.2881C120.592 82.0713 120.936 81.1211 121.624 80.4375C122.317 79.7539 123.279 79.4121 124.509 79.4121C125.293 79.4121 126.084 79.5306 126.881 79.7676V80.8955C126.002 80.5811 125.252 80.4238 124.632 80.4238C123.821 80.4238 123.183 80.679 122.718 81.1895C122.258 81.6999 122.028 82.3994 122.028 83.2881C122.028 84.1859 122.274 84.89 122.766 85.4004C123.263 85.9062 123.946 86.1592 124.817 86.1592C125.468 86.1592 126.202 86.0065 127.018 85.7012V86.7607ZM129.228 87V76.2061H130.574V79.5762V80.9707C131.194 79.9316 132.037 79.4121 133.103 79.4121C134.512 79.4121 135.216 80.2484 135.216 81.9209V87H133.869V82.29C133.869 81.7113 133.778 81.3011 133.596 81.0596C133.418 80.8135 133.117 80.6904 132.693 80.6904C132.019 80.6904 131.312 81.1758 130.574 82.1465V87H129.228ZM137.733 87V79.5762H139.08V80.9707C139.7 79.9316 140.543 79.4121 141.609 79.4121C143.017 79.4121 143.721 80.2484 143.721 81.9209V87H142.375V82.29C142.375 81.7113 142.284 81.3011 142.101 81.0596C141.923 80.8135 141.623 80.6904 141.199 80.6904C140.524 80.6904 139.818 81.1758 139.08 82.1465V87H137.733ZM149.212 87.1709C148.123 87.1709 147.266 86.8268 146.642 86.1387C146.022 85.446 145.712 84.4958 145.712 83.2881C145.712 82.085 146.024 81.1393 146.649 80.4512C147.273 79.7585 148.128 79.4121 149.212 79.4121C150.301 79.4121 151.156 79.7585 151.776 80.4512C152.4 81.1393 152.712 82.085 152.712 83.2881C152.712 84.4958 152.4 85.446 151.776 86.1387C151.156 86.8268 150.301 87.1709 149.212 87.1709ZM149.212 86.1592C149.859 86.1592 150.365 85.9062 150.73 85.4004C151.094 84.8945 151.277 84.1904 151.277 83.2881C151.277 82.3903 151.094 81.6885 150.73 81.1826C150.365 80.6768 149.859 80.4238 149.212 80.4238C148.565 80.4238 148.059 80.6768 147.695 81.1826C147.33 81.6885 147.148 82.3903 147.148 83.2881C147.148 84.1904 147.33 84.8945 147.695 85.4004C148.059 85.9062 148.565 86.1592 149.212 86.1592ZM157.547 87V77.2178H154.683V76.2061H158.9V87H157.547ZM166.223 87.1709C165.134 87.1709 164.277 86.8268 163.653 86.1387C163.033 85.446 162.723 84.4958 162.723 83.2881C162.723 82.085 163.036 81.1393 163.66 80.4512C164.284 79.7585 165.139 79.4121 166.223 79.4121C167.313 79.4121 168.167 79.7585 168.787 80.4512C169.411 81.1393 169.723 82.085 169.723 83.2881C169.723 84.4958 169.411 85.446 168.787 86.1387C168.167 86.8268 167.313 87.1709 166.223 87.1709ZM166.223 86.1592C166.87 86.1592 167.376 85.9062 167.741 85.4004C168.105 84.8945 168.288 84.1904 168.288 83.2881C168.288 82.3903 168.105 81.6885 167.741 81.1826C167.376 80.6768 166.87 80.4238 166.223 80.4238C165.576 80.4238 165.07 80.6768 164.706 81.1826C164.341 81.6885 164.159 82.3903 164.159 83.2881C164.159 84.1904 164.341 84.8945 164.706 85.4004C165.07 85.9062 165.576 86.1592 166.223 86.1592ZM171.96 89.4814L172.104 88.3467C172.911 88.6885 173.66 88.8594 174.353 88.8594C175.793 88.8594 176.513 88.1735 176.513 86.8018L176.575 85.4619C176.009 86.4873 175.191 87 174.12 87C173.273 87 172.598 86.6787 172.097 86.0361C171.6 85.389 171.352 84.5186 171.352 83.4248C171.352 82.2354 171.641 81.2692 172.22 80.5264C172.799 79.779 173.551 79.4053 174.476 79.4053C175.201 79.4053 175.914 79.7448 176.616 80.4238V79.5762H177.88V85.5166C177.88 86.4782 177.816 87.2005 177.689 87.6836C177.561 88.1712 177.322 88.6019 176.971 88.9756C176.411 89.5726 175.533 89.8711 174.339 89.8711C173.637 89.8711 172.844 89.7412 171.96 89.4814ZM176.534 84.3682V81.4492C175.927 80.7656 175.301 80.4238 174.654 80.4238C174.066 80.4238 173.608 80.679 173.28 81.1895C172.952 81.6999 172.787 82.4154 172.787 83.3359C172.787 84.1152 172.931 84.7259 173.218 85.168C173.505 85.6055 173.906 85.8242 174.421 85.8242C175.219 85.8242 175.923 85.3389 176.534 84.3682ZM182.899 87V80.5879H180.199V79.5762H184.246V87H182.899ZM182.729 77.8945V76.2061H184.417V77.8945H182.729ZM195.028 86.7061C194.094 87.016 193.237 87.1709 192.458 87.1709C191.182 87.1709 190.2 86.8428 189.511 86.1865C188.828 85.5303 188.486 84.5915 188.486 83.3701C188.486 82.2171 188.814 81.2692 189.47 80.5264C190.131 79.7835 190.97 79.4121 191.986 79.4121C193.011 79.4121 193.766 79.7197 194.249 80.335C194.736 80.9502 194.98 81.9072 194.98 83.2061V83.6367H189.922C190.022 85.3184 190.929 86.1592 192.642 86.1592C193.367 86.1592 194.162 85.986 195.028 85.6396V86.7061ZM189.963 82.625H193.545V82.4336C193.545 81.0938 192.986 80.4238 191.87 80.4238C191.332 80.4238 190.895 80.6175 190.557 81.0049C190.225 81.3923 190.026 81.9323 189.963 82.625ZM197.306 86.6992V85.4824C198.35 85.9336 199.252 86.1592 200.013 86.1592C200.56 86.1592 201.011 86.0498 201.367 85.8311C201.727 85.6077 201.907 85.3275 201.907 84.9902C201.907 84.5573 201.481 84.2041 200.628 83.9307L199.186 83.459C198.06 83.0944 197.497 82.4518 197.497 81.5312C197.497 80.8568 197.75 80.335 198.256 79.9658C198.767 79.5967 199.487 79.4121 200.416 79.4121C201.114 79.4121 201.923 79.5192 202.843 79.7334V80.8271C201.954 80.5583 201.143 80.4238 200.41 80.4238C199.917 80.4238 199.523 80.5127 199.227 80.6904C198.935 80.8682 198.789 81.1074 198.789 81.4082C198.789 81.7773 199.124 82.0781 199.794 82.3105L201.496 82.9053C202.116 83.124 202.561 83.3861 202.829 83.6914C203.103 83.9922 203.24 84.3841 203.24 84.8672C203.24 85.569 202.95 86.1296 202.371 86.5488C201.793 86.9635 201.016 87.1709 200.04 87.1709C199.188 87.1709 198.277 87.0137 197.306 86.6992Z" fill="white"/>
</svg>
